<mxfile host="app.diagrams.net" modified="2022-03-22T12:36:24.542Z" agent="5.0 (Windows NT 10.0; Win64; x64) AppleWebKit/537.36 (KHTML, like Gecko) Chrome/99.0.4844.74 Safari/537.36" etag="ey_3XuEAsgn4X3EMqfhu" version="17.1.3" type="github">
  <diagram id="nRYra_nyQCXSe4IzLTbZ" name="Page-1">
    <mxGraphModel dx="1108" dy="450" grid="1" gridSize="10" guides="1" tooltips="1" connect="1" arrows="1" fold="1" page="1" pageScale="1" pageWidth="827" pageHeight="1169" math="0" shadow="0">
      <root>
        <mxCell id="0" />
        <mxCell id="1" parent="0" />
        <mxCell id="HHRPNql9iZ0X4Br_xsMX-16" style="edgeStyle=orthogonalEdgeStyle;rounded=0;orthogonalLoop=1;jettySize=auto;html=1;exitX=1;exitY=0.5;exitDx=0;exitDy=0;" edge="1" parent="1" source="HHRPNql9iZ0X4Br_xsMX-13" target="HHRPNql9iZ0X4Br_xsMX-14">
          <mxGeometry relative="1" as="geometry" />
        </mxCell>
        <mxCell id="HHRPNql9iZ0X4Br_xsMX-13" value="Aluno" style="rounded=0;whiteSpace=wrap;html=1;" vertex="1" parent="1">
          <mxGeometry x="40" y="20" width="120" height="60" as="geometry" />
        </mxCell>
        <mxCell id="HHRPNql9iZ0X4Br_xsMX-17" style="edgeStyle=orthogonalEdgeStyle;rounded=0;orthogonalLoop=1;jettySize=auto;html=1;exitX=1;exitY=0.5;exitDx=0;exitDy=0;entryX=0;entryY=0.5;entryDx=0;entryDy=0;" edge="1" parent="1" source="HHRPNql9iZ0X4Br_xsMX-14" target="HHRPNql9iZ0X4Br_xsMX-15">
          <mxGeometry relative="1" as="geometry" />
        </mxCell>
        <mxCell id="HHRPNql9iZ0X4Br_xsMX-14" value="Faz" style="rhombus;whiteSpace=wrap;html=1;" vertex="1" parent="1">
          <mxGeometry x="210" y="20" width="80" height="60" as="geometry" />
        </mxCell>
        <mxCell id="HHRPNql9iZ0X4Br_xsMX-20" style="edgeStyle=orthogonalEdgeStyle;rounded=0;orthogonalLoop=1;jettySize=auto;html=1;exitX=0.5;exitY=1;exitDx=0;exitDy=0;" edge="1" parent="1" source="HHRPNql9iZ0X4Br_xsMX-15" target="HHRPNql9iZ0X4Br_xsMX-19">
          <mxGeometry relative="1" as="geometry" />
        </mxCell>
        <mxCell id="HHRPNql9iZ0X4Br_xsMX-15" value="Matricula" style="rounded=0;whiteSpace=wrap;html=1;" vertex="1" parent="1">
          <mxGeometry x="360" y="20" width="120" height="60" as="geometry" />
        </mxCell>
        <mxCell id="HHRPNql9iZ0X4Br_xsMX-26" style="edgeStyle=orthogonalEdgeStyle;rounded=0;orthogonalLoop=1;jettySize=auto;html=1;exitX=0.5;exitY=1;exitDx=0;exitDy=0;" edge="1" parent="1" source="HHRPNql9iZ0X4Br_xsMX-19" target="HHRPNql9iZ0X4Br_xsMX-25">
          <mxGeometry relative="1" as="geometry" />
        </mxCell>
        <mxCell id="HHRPNql9iZ0X4Br_xsMX-19" value="Faz" style="rhombus;whiteSpace=wrap;html=1;" vertex="1" parent="1">
          <mxGeometry x="380" y="120" width="80" height="60" as="geometry" />
        </mxCell>
        <mxCell id="HHRPNql9iZ0X4Br_xsMX-21" value="(1,1)" style="text;html=1;align=center;verticalAlign=middle;resizable=0;points=[];autosize=1;strokeColor=none;fillColor=none;" vertex="1" parent="1">
          <mxGeometry x="160" y="30" width="40" height="20" as="geometry" />
        </mxCell>
        <mxCell id="HHRPNql9iZ0X4Br_xsMX-22" value="(0,1)" style="text;html=1;align=center;verticalAlign=middle;resizable=0;points=[];autosize=1;strokeColor=none;fillColor=none;" vertex="1" parent="1">
          <mxGeometry x="310" y="30" width="40" height="20" as="geometry" />
        </mxCell>
        <mxCell id="HHRPNql9iZ0X4Br_xsMX-27" style="edgeStyle=orthogonalEdgeStyle;rounded=0;orthogonalLoop=1;jettySize=auto;html=1;exitX=1;exitY=0.5;exitDx=0;exitDy=0;entryX=0;entryY=0.5;entryDx=0;entryDy=0;" edge="1" parent="1" source="HHRPNql9iZ0X4Br_xsMX-23" target="HHRPNql9iZ0X4Br_xsMX-24">
          <mxGeometry relative="1" as="geometry" />
        </mxCell>
        <mxCell id="HHRPNql9iZ0X4Br_xsMX-30" style="edgeStyle=orthogonalEdgeStyle;rounded=0;orthogonalLoop=1;jettySize=auto;html=1;exitX=0.5;exitY=1;exitDx=0;exitDy=0;entryX=0.5;entryY=0;entryDx=0;entryDy=0;" edge="1" parent="1" source="HHRPNql9iZ0X4Br_xsMX-23" target="HHRPNql9iZ0X4Br_xsMX-29">
          <mxGeometry relative="1" as="geometry" />
        </mxCell>
        <mxCell id="HHRPNql9iZ0X4Br_xsMX-23" value="Professor" style="rounded=0;whiteSpace=wrap;html=1;" vertex="1" parent="1">
          <mxGeometry x="40" y="240" width="120" height="60" as="geometry" />
        </mxCell>
        <mxCell id="HHRPNql9iZ0X4Br_xsMX-28" style="edgeStyle=orthogonalEdgeStyle;rounded=0;orthogonalLoop=1;jettySize=auto;html=1;exitX=1;exitY=0.5;exitDx=0;exitDy=0;entryX=0;entryY=0.5;entryDx=0;entryDy=0;" edge="1" parent="1" source="HHRPNql9iZ0X4Br_xsMX-24" target="HHRPNql9iZ0X4Br_xsMX-25">
          <mxGeometry relative="1" as="geometry" />
        </mxCell>
        <mxCell id="HHRPNql9iZ0X4Br_xsMX-24" value="Ensina" style="rhombus;whiteSpace=wrap;html=1;" vertex="1" parent="1">
          <mxGeometry x="210" y="240" width="80" height="60" as="geometry" />
        </mxCell>
        <mxCell id="HHRPNql9iZ0X4Br_xsMX-35" style="edgeStyle=orthogonalEdgeStyle;rounded=0;orthogonalLoop=1;jettySize=auto;html=1;exitX=0.5;exitY=1;exitDx=0;exitDy=0;entryX=0.5;entryY=0;entryDx=0;entryDy=0;" edge="1" parent="1" source="HHRPNql9iZ0X4Br_xsMX-25" target="HHRPNql9iZ0X4Br_xsMX-34">
          <mxGeometry relative="1" as="geometry" />
        </mxCell>
        <mxCell id="HHRPNql9iZ0X4Br_xsMX-25" value="Turma" style="rounded=0;whiteSpace=wrap;html=1;" vertex="1" parent="1">
          <mxGeometry x="360" y="240" width="120" height="60" as="geometry" />
        </mxCell>
        <mxCell id="HHRPNql9iZ0X4Br_xsMX-32" style="edgeStyle=orthogonalEdgeStyle;rounded=0;orthogonalLoop=1;jettySize=auto;html=1;exitX=0.5;exitY=1;exitDx=0;exitDy=0;entryX=0.5;entryY=0;entryDx=0;entryDy=0;" edge="1" parent="1" source="HHRPNql9iZ0X4Br_xsMX-29" target="HHRPNql9iZ0X4Br_xsMX-31">
          <mxGeometry relative="1" as="geometry" />
        </mxCell>
        <mxCell id="HHRPNql9iZ0X4Br_xsMX-29" value="Pode ministrar" style="rhombus;whiteSpace=wrap;html=1;" vertex="1" parent="1">
          <mxGeometry x="50" y="360" width="100" height="60" as="geometry" />
        </mxCell>
        <mxCell id="HHRPNql9iZ0X4Br_xsMX-31" value="Disciplina" style="rounded=0;whiteSpace=wrap;html=1;" vertex="1" parent="1">
          <mxGeometry x="40" y="480" width="120" height="60" as="geometry" />
        </mxCell>
        <mxCell id="HHRPNql9iZ0X4Br_xsMX-37" style="edgeStyle=orthogonalEdgeStyle;rounded=0;orthogonalLoop=1;jettySize=auto;html=1;exitX=0.5;exitY=1;exitDx=0;exitDy=0;entryX=0.5;entryY=0;entryDx=0;entryDy=0;" edge="1" parent="1" source="HHRPNql9iZ0X4Br_xsMX-34" target="HHRPNql9iZ0X4Br_xsMX-36">
          <mxGeometry relative="1" as="geometry" />
        </mxCell>
        <mxCell id="HHRPNql9iZ0X4Br_xsMX-34" value="Utiliza" style="rhombus;whiteSpace=wrap;html=1;" vertex="1" parent="1">
          <mxGeometry x="380" y="360" width="80" height="60" as="geometry" />
        </mxCell>
        <mxCell id="HHRPNql9iZ0X4Br_xsMX-36" value="Sala" style="rounded=0;whiteSpace=wrap;html=1;" vertex="1" parent="1">
          <mxGeometry x="360" y="480" width="120" height="60" as="geometry" />
        </mxCell>
        <mxCell id="HHRPNql9iZ0X4Br_xsMX-41" value="Gera" style="rhombus;whiteSpace=wrap;html=1;" vertex="1" parent="1">
          <mxGeometry x="210" y="380" width="80" height="60" as="geometry" />
        </mxCell>
        <mxCell id="HHRPNql9iZ0X4Br_xsMX-43" value="" style="endArrow=classic;html=1;rounded=0;entryX=1;entryY=0;entryDx=0;entryDy=0;exitX=0;exitY=1;exitDx=0;exitDy=0;" edge="1" parent="1" source="HHRPNql9iZ0X4Br_xsMX-25" target="HHRPNql9iZ0X4Br_xsMX-41">
          <mxGeometry width="50" height="50" relative="1" as="geometry">
            <mxPoint x="280" y="360" as="sourcePoint" />
            <mxPoint x="330" y="310" as="targetPoint" />
          </mxGeometry>
        </mxCell>
        <mxCell id="HHRPNql9iZ0X4Br_xsMX-44" value="" style="endArrow=classic;html=1;rounded=0;entryX=1;entryY=0.25;entryDx=0;entryDy=0;" edge="1" parent="1" target="HHRPNql9iZ0X4Br_xsMX-31">
          <mxGeometry width="50" height="50" relative="1" as="geometry">
            <mxPoint x="230" y="425" as="sourcePoint" />
            <mxPoint x="190" y="460" as="targetPoint" />
          </mxGeometry>
        </mxCell>
        <mxCell id="HHRPNql9iZ0X4Br_xsMX-46" value="(0,50)" style="text;html=1;align=center;verticalAlign=middle;resizable=0;points=[];autosize=1;strokeColor=none;fillColor=none;" vertex="1" parent="1">
          <mxGeometry x="420" y="80" width="50" height="20" as="geometry" />
        </mxCell>
        <mxCell id="HHRPNql9iZ0X4Br_xsMX-47" value="(1,3)" style="text;html=1;align=center;verticalAlign=middle;resizable=0;points=[];autosize=1;strokeColor=none;fillColor=none;" vertex="1" parent="1">
          <mxGeometry x="160" y="250" width="40" height="20" as="geometry" />
        </mxCell>
        <mxCell id="HHRPNql9iZ0X4Br_xsMX-48" value="(0,1)" style="text;html=1;align=center;verticalAlign=middle;resizable=0;points=[];autosize=1;strokeColor=none;fillColor=none;" vertex="1" parent="1">
          <mxGeometry x="100" y="460" width="40" height="20" as="geometry" />
        </mxCell>
        <mxCell id="HHRPNql9iZ0X4Br_xsMX-49" value="(1,N)" style="text;html=1;align=center;verticalAlign=middle;resizable=0;points=[];autosize=1;strokeColor=none;fillColor=none;" vertex="1" parent="1">
          <mxGeometry x="100" y="300" width="40" height="20" as="geometry" />
        </mxCell>
        <mxCell id="HHRPNql9iZ0X4Br_xsMX-50" value="(0,N)" style="text;html=1;align=center;verticalAlign=middle;resizable=0;points=[];autosize=1;strokeColor=none;fillColor=none;" vertex="1" parent="1">
          <mxGeometry x="320" y="250" width="40" height="20" as="geometry" />
        </mxCell>
        <mxCell id="HHRPNql9iZ0X4Br_xsMX-51" value="(1,N)" style="text;html=1;align=center;verticalAlign=middle;resizable=0;points=[];autosize=1;strokeColor=none;fillColor=none;" vertex="1" parent="1">
          <mxGeometry x="420" y="460" width="40" height="20" as="geometry" />
        </mxCell>
        <mxCell id="HHRPNql9iZ0X4Br_xsMX-52" value="(0,N)" style="text;html=1;align=center;verticalAlign=middle;resizable=0;points=[];autosize=1;strokeColor=none;fillColor=none;" vertex="1" parent="1">
          <mxGeometry x="420" y="300" width="40" height="20" as="geometry" />
        </mxCell>
        <mxCell id="HHRPNql9iZ0X4Br_xsMX-53" value="(1,1)" style="text;html=1;align=center;verticalAlign=middle;resizable=0;points=[];autosize=1;strokeColor=none;fillColor=none;" vertex="1" parent="1">
          <mxGeometry x="420" y="220" width="40" height="20" as="geometry" />
        </mxCell>
        <mxCell id="HHRPNql9iZ0X4Br_xsMX-54" value="(1,1)" style="text;html=1;align=center;verticalAlign=middle;resizable=0;points=[];autosize=1;strokeColor=none;fillColor=none;" vertex="1" parent="1">
          <mxGeometry x="160" y="500" width="40" height="20" as="geometry" />
        </mxCell>
        <mxCell id="HHRPNql9iZ0X4Br_xsMX-55" value="(0,N)" style="text;html=1;align=center;verticalAlign=middle;resizable=0;points=[];autosize=1;strokeColor=none;fillColor=none;" vertex="1" parent="1">
          <mxGeometry x="320" y="290" width="40" height="20" as="geometry" />
        </mxCell>
      </root>
    </mxGraphModel>
  </diagram>
</mxfile>
